<?xml version="1.0" ?><svg id="Icons" viewBox="0 0 48 48" xmlns="http://www.w3.org/2000/svg"><defs><style>.cls-1{fill:#ffe500;}.cls-2{fill:#ebcb00;}.cls-3{fill:#fff48c;}.cls-4{fill:#45413c;opacity:0.15;}.cls-5{fill:none;}.cls-5,.cls-7{stroke:#45413c;stroke-linecap:round;stroke-linejoin:round;}.cls-6{fill:#ffaa54;}.cls-7{fill:#fff;}</style></defs><title/><circle class="cls-1" cx="20.5" cy="21.5" data-name="&lt;Ellipse&gt;" id="_Ellipse_" r="20"/><path class="cls-2" d="M20.5,1.5a20,20,0,1,0,20,20A20,20,0,0,0,20.5,1.5Zm0,37A18.25,18.25,0,1,1,38.75,20.25,18.25,18.25,0,0,1,20.5,38.5Z" data-name="&lt;Compound Path&gt;" id="_Compound_Path_"/><ellipse class="cls-3" cx="20.5" cy="5.5" data-name="&lt;Ellipse&gt;" id="_Ellipse_2" rx="6" ry="1.5"/><ellipse class="cls-4" cx="20.5" cy="45.5" data-name="&lt;Ellipse&gt;" id="_Ellipse_3" rx="16" ry="1.5"/><circle class="cls-5" cx="20.5" cy="21.5" data-name="&lt;Ellipse&gt;" id="_Ellipse_4" r="20"/><path class="cls-6" d="M35,26.5c0,.83-1.12,1.5-2.5,1.5S30,27.33,30,26.5,31.12,25,32.5,25,35,25.67,35,26.5Z" data-name="&lt;Path&gt;" id="_Path_"/><path class="cls-6" d="M6,26.5C6,27.33,7.12,28,8.5,28s2.5-.67,2.5-1.5S9.88,25,8.5,25,6,25.67,6,26.5Z" data-name="&lt;Path&gt;" id="_Path_2"/><path class="cls-5" d="M6.5,22.75a1.75,1.75,0,0,1,3.5,0" data-name="&lt;Path&gt;" id="_Path_3"/><path class="cls-5" d="M31,22.75a1.75,1.75,0,0,1,3.5,0" data-name="&lt;Path&gt;" id="_Path_4"/><path class="cls-7" d="M42.67,30.67l4.54-1.52a.43.43,0,0,0,0-.81L43.48,27.1A1.71,1.71,0,0,1,42.4,26l-1.24-3.73a.44.44,0,0,0-.41-.29.42.42,0,0,0-.4.29L39.1,26A1.71,1.71,0,0,1,38,27.1l-3.73,1.24a.43.43,0,0,0,0,.81L38,30.4a1.71,1.71,0,0,1,1.08,1.08l1.25,3.73a.42.42,0,0,0,.4.29.44.44,0,0,0,.41-.29Z" data-name="&lt;Path&gt;" id="_Path_5"/><g data-name="&lt;Group&gt;" id="_Group_"><path class="cls-7" d="M20.5,36.55c9.2,0,10.43-3.84,9.89-7a3.41,3.41,0,0,0-4.56-2.36,16.42,16.42,0,0,1-5.33.84,16.42,16.42,0,0,1-5.33-.84,3.41,3.41,0,0,0-4.56,2.36C10.07,32.71,11.3,36.55,20.5,36.55Z" data-name="&lt;Path&gt;" id="_Path_6"/><g data-name="&lt;Group&gt;" id="_Group_2"><path class="cls-5" d="M30.48,30.28a17.08,17.08,0,0,1-4.6,1.36,32.3,32.3,0,0,1-5.38.41,32.3,32.3,0,0,1-5.38-.41,17.08,17.08,0,0,1-4.6-1.36" data-name="&lt;Path&gt;" id="_Path_7"/><polyline class="cls-5" data-name="&lt;Path&gt;" id="_Path_8" points="15.78 27.39 15.12 31.64 14.49 35.73"/><line class="cls-5" data-name="&lt;Path&gt;" id="_Path_9" x1="20.5" x2="20.5" y1="36.55" y2="28.05"/><polyline class="cls-5" data-name="&lt;Path&gt;" id="_Path_10" points="25.23 27.39 25.88 31.64 26.51 35.73"/></g></g></svg>